<?xml version="1.0" standalone="no"?>
<!DOCTYPE svg PUBLIC "-//W3C//DTD SVG 20010904//EN"
 "http://www.w3.org/TR/2001/REC-SVG-20010904/DTD/svg10.dtd">
<svg version="1.0" xmlns="http://www.w3.org/2000/svg"
 width="1000.000000pt" height="1000.000000pt" viewBox="0 0 1000.000000 1000.000000"
 preserveAspectRatio="xMidYMid meet">
<metadata>
Created by potrace 1.14, written by Peter Selinger 2001-2017
</metadata>
<g transform="translate(0.000000,1000.000000) scale(0.100000,-0.100000)"
fill="#000000" stroke="none">
<path d="M4675 9803 c-224 -22 -590 -88 -770 -139 -243 -68 -272 -77 -365
-112 -52 -20 -124 -46 -160 -58 -170 -58 -516 -231 -748 -376 -30 -18 -75 -46
-102 -63 -94 -58 -287 -198 -365 -265 -29 -25 -86 -72 -127 -105 -81 -66 -430
-412 -493 -489 -22 -26 -58 -68 -80 -93 -42 -48 -55 -65 -200 -267 -240 -336
-403 -639 -569 -1063 -31 -78 -56 -147 -56 -154 0 -7 -20 -75 -45 -151 -25
-76 -54 -180 -65 -230 -82 -391 -90 -441 -110 -672 -26 -304 -26 -599 -1 -896
21 -244 36 -345 82 -545 16 -71 37 -161 46 -200 8 -38 33 -122 54 -185 22 -63
39 -121 39 -129 0 -16 86 -237 148 -381 53 -122 197 -404 244 -478 l41 -63
-57 -155 c-31 -85 -56 -161 -56 -168 0 -7 -21 -68 -46 -137 -25 -68 -52 -146
-59 -174 -8 -27 -53 -162 -100 -300 -48 -137 -93 -272 -102 -300 -8 -27 -36
-108 -61 -180 -25 -71 -54 -157 -63 -190 -9 -33 -56 -172 -104 -310 -48 -137
-95 -279 -105 -315 -11 -36 -37 -113 -59 -173 -23 -59 -41 -109 -41 -112 0
-14 61 0 205 48 88 30 239 79 335 110 492 156 560 178 1010 323 91 29 237 76
325 104 88 28 234 75 325 104 91 29 220 71 287 92 l123 38 37 -22 c127 -75
470 -226 699 -307 73 -25 174 -57 225 -70 52 -14 155 -40 229 -60 74 -19 167
-39 205 -44 39 -6 147 -21 240 -35 439 -65 888 -62 1340 9 238 38 313 53 453
92 70 19 146 39 168 44 129 26 565 199 784 312 160 82 280 148 344 190 28 19
104 69 169 111 65 43 132 90 150 105 18 15 46 35 62 46 17 10 50 36 75 57 25
21 95 79 155 130 222 186 495 478 699 748 54 71 196 279 196 286 0 3 15 27 34
53 19 25 53 82 76 126 24 44 50 91 59 105 48 73 218 443 265 576 138 393 173
522 230 839 87 483 101 965 40 1405 -47 344 -120 664 -211 925 -19 55 -46 131
-59 169 -53 150 -231 528 -303 640 -17 28 -31 54 -31 58 0 5 -22 42 -50 83
-27 41 -50 77 -50 80 0 3 -19 33 -42 67 -24 33 -54 77 -68 98 -37 55 -134 182
-221 290 -281 348 -671 698 -1054 947 -38 25 -89 58 -111 74 -23 16 -54 33
-69 39 -15 6 -41 20 -57 32 -84 59 -481 253 -610 297 -29 10 -102 36 -163 59
-215 79 -411 132 -690 186 -335 65 -379 69 -840 71 -231 2 -438 1 -460 -2z
m815 -807 c286 -35 373 -50 500 -83 74 -19 169 -43 211 -54 95 -24 343 -115
469 -173 166 -76 183 -85 275 -134 113 -62 304 -178 330 -202 11 -9 30 -23 43
-29 102 -53 474 -375 635 -550 509 -553 819 -1166 982 -1941 33 -157 58 -465
58 -715 0 -469 -59 -831 -208 -1270 -79 -235 -210 -521 -317 -691 -21 -34 -38
-64 -38 -67 0 -6 -136 -209 -192 -287 -192 -264 -565 -639 -821 -822 -381
-275 -710 -443 -1122 -576 -428 -137 -750 -187 -1205 -186 -451 1 -780 53
-1195 187 -253 82 -564 219 -731 323 -39 24 -74 44 -78 44 -5 0 -38 21 -73 46
l-66 45 -131 -44 c-123 -42 -264 -87 -641 -207 -88 -28 -236 -75 -330 -105
-93 -30 -219 -70 -278 -89 -82 -27 -107 -32 -103 -20 3 8 12 40 21 72 8 31 31
100 50 152 20 52 45 124 55 160 11 36 58 178 106 315 47 138 94 279 105 315
10 36 39 121 63 190 25 69 51 147 59 173 l14 48 -67 102 c-109 167 -152 235
-192 311 -54 102 -188 378 -188 387 0 5 -22 65 -50 134 -27 69 -54 142 -59
163 -5 20 -27 101 -50 179 -84 288 -134 665 -134 1018 0 591 132 1172 382
1685 123 252 232 432 403 664 137 184 366 431 548 588 139 120 162 139 188
155 15 10 45 32 67 49 33 27 109 80 210 147 161 108 523 291 695 352 219 78
280 98 415 134 83 23 184 47 225 55 104 20 383 56 515 66 144 11 500 3 645
-14z"/>
<path d="M4682 8068 c1 -7 -18 -53 -42 -103 -24 -49 -43 -96 -43 -102 0 -7 -4
-13 -8 -13 -5 0 -16 -17 -26 -37 -9 -21 -19 -40 -23 -43 -3 -3 -14 -22 -25
-42 -11 -21 -23 -38 -27 -38 -5 0 -8 -5 -8 -12 0 -6 -11 -26 -25 -44 -14 -18
-25 -37 -25 -43 0 -6 -4 -11 -10 -11 -5 0 -10 -7 -10 -15 0 -8 -3 -15 -7 -15
-8 0 -46 -62 -43 -69 1 -2 -3 -7 -8 -10 -14 -8 -82 -108 -82 -120 0 -5 -3 -11
-7 -13 -11 -4 -53 -65 -53 -77 0 -5 -7 -12 -16 -15 -8 -3 -13 -10 -10 -14 3
-5 -4 -14 -14 -22 -10 -8 -17 -17 -15 -21 3 -4 -2 -12 -10 -19 -8 -7 -15 -19
-15 -26 0 -8 -5 -14 -10 -14 -6 0 -14 -8 -18 -17 -10 -25 -65 -107 -77 -115
-5 -4 -10 -11 -10 -15 0 -4 -11 -23 -25 -41 -14 -19 -25 -38 -25 -42 0 -5 -9
-16 -20 -24 -11 -9 -16 -16 -12 -16 5 0 -5 -18 -22 -39 -17 -21 -31 -44 -31
-49 0 -6 -8 -16 -17 -21 -10 -6 -14 -11 -10 -11 4 0 3 -6 -2 -12 -46 -57 -61
-77 -61 -87 0 -6 -4 -11 -9 -11 -5 0 -11 -8 -15 -17 -8 -25 -29 -57 -43 -66
-7 -4 -13 -15 -13 -22 0 -8 -4 -15 -10 -15 -5 0 -10 -6 -10 -13 0 -8 -9 -22
-20 -32 -11 -10 -17 -22 -14 -26 3 -5 0 -9 -6 -9 -6 0 -15 -11 -20 -25 -5 -14
-14 -25 -20 -25 -5 0 -10 -6 -10 -13 0 -12 -10 -27 -50 -74 -6 -7 -7 -13 -3
-13 4 -1 -3 -10 -17 -21 -14 -12 -24 -23 -22 -25 5 -8 -29 -64 -38 -64 -6 0
-10 -6 -10 -14 0 -7 -6 -19 -14 -25 -8 -7 -22 -27 -31 -46 -9 -19 -20 -35 -25
-35 -6 0 -10 -5 -10 -10 0 -12 -40 -71 -55 -82 -5 -4 -6 -8 -1 -8 5 0 -1 -8
-12 -19 -12 -10 -19 -20 -17 -23 3 -3 -1 -11 -10 -18 -8 -7 -15 -18 -15 -25 0
-7 -7 -15 -15 -19 -8 -3 -15 -10 -15 -16 0 -6 -11 -26 -25 -44 -14 -18 -25
-37 -25 -42 0 -5 -9 -15 -21 -22 -12 -7 -18 -16 -15 -19 3 -3 -8 -23 -25 -44
-17 -22 -27 -39 -23 -39 5 0 -2 -7 -14 -16 -12 -8 -22 -20 -22 -26 0 -6 -17
-33 -37 -61 -21 -29 -38 -55 -38 -60 0 -5 -7 -14 -15 -20 -8 -7 -16 -19 -18
-27 -2 -8 -10 -19 -18 -23 -8 -4 -14 -14 -14 -21 0 -7 -11 -25 -25 -40 -14
-15 -25 -33 -25 -40 0 -8 -7 -16 -15 -20 -8 -3 -15 -12 -15 -21 0 -8 -4 -15
-10 -15 -5 0 -10 -6 -10 -13 0 -8 -9 -22 -20 -32 -11 -10 -17 -21 -15 -25 3
-4 -2 -10 -10 -14 -8 -3 -15 -12 -15 -20 0 -8 -6 -19 -12 -23 -15 -9 -36 -41
-44 -65 -4 -10 -10 -18 -15 -18 -5 0 -9 -6 -9 -14 0 -8 -9 -21 -19 -28 -18
-13 -18 -15 12 -50 18 -20 50 -57 72 -83 22 -26 49 -57 60 -70 11 -13 31 -36
44 -51 52 -61 136 -159 141 -164 3 -3 30 -34 60 -70 91 -107 104 -122 128
-146 12 -13 22 -28 22 -34 0 -17 40 -11 47 8 4 9 15 23 25 30 10 7 18 19 18
26 0 16 23 37 44 40 9 1 26 12 38 23 19 18 62 41 88 48 3 0 24 11 48 23 23 12
42 20 42 16 0 -3 7 2 16 10 8 9 24 16 35 16 10 0 19 5 19 10 0 6 9 10 19 10
11 0 21 5 23 11 2 5 10 11 18 13 35 7 80 29 80 38 0 6 6 8 14 5 8 -3 19 0 25
7 6 7 29 19 51 26 22 7 40 17 40 22 0 4 8 8 19 8 10 0 24 7 31 15 6 8 15 14
18 13 9 -2 42 11 62 22 8 5 31 17 50 26 19 9 64 30 99 48 36 17 67 31 70 31 4
0 13 5 21 10 8 5 21 10 29 12 8 1 17 7 21 14 4 6 12 9 18 5 6 -3 17 3 25 14 7
11 17 17 20 14 4 -4 13 -1 21 5 8 7 20 10 26 6 5 -3 13 1 16 9 3 9 14 16 24
16 10 0 23 7 30 15 6 8 15 13 18 12 4 -1 43 16 87 37 43 22 85 39 92 39 7 0
13 3 13 7 0 8 82 45 93 42 4 -1 7 2 7 8 0 5 8 10 19 10 10 0 24 7 31 15 6 8
15 14 18 13 4 -1 24 6 44 16 21 9 41 16 45 17 5 0 15 6 23 14 8 7 25 16 38 19
12 4 22 12 22 18 0 5 7 8 15 5 8 -4 17 -2 20 3 4 6 14 10 25 10 10 0 21 7 24
16 4 9 9 14 13 11 3 -4 25 5 49 18 24 14 44 22 44 19 0 -2 9 0 19 5 26 15 36
-11 10 -27 -10 -7 -19 -19 -19 -27 0 -8 -3 -15 -7 -15 -8 0 -45 -60 -45 -70 0
-3 -6 -9 -14 -13 -8 -4 -14 -14 -14 -21 0 -8 -7 -16 -15 -20 -8 -3 -15 -10
-15 -16 0 -6 -11 -26 -25 -44 -14 -18 -25 -38 -25 -43 0 -6 -7 -13 -15 -17 -8
-3 -15 -12 -15 -21 0 -8 -4 -15 -10 -15 -5 0 -12 -11 -16 -24 -3 -14 -12 -27
-21 -30 -8 -3 -12 -10 -9 -14 3 -5 -4 -15 -15 -22 -10 -8 -19 -18 -19 -22 0
-11 -118 -185 -130 -193 -6 -4 -8 -10 -5 -15 3 -5 -4 -15 -16 -24 -12 -8 -18
-19 -15 -24 3 -6 -1 -13 -10 -16 -9 -4 -14 -9 -10 -13 3 -3 -3 -13 -14 -20
-11 -8 -18 -19 -15 -24 4 -5 1 -9 -5 -9 -6 0 -15 -11 -20 -25 -5 -14 -14 -25
-20 -25 -5 0 -10 -8 -10 -18 0 -9 -9 -23 -20 -30 -12 -7 -18 -17 -15 -22 4 -6
-1 -13 -9 -16 -9 -3 -14 -10 -11 -14 2 -4 -4 -15 -15 -25 -11 -10 -20 -24 -20
-32 0 -7 -7 -16 -15 -19 -8 -4 -15 -12 -15 -20 0 -8 -4 -14 -9 -14 -5 0 -11
-8 -15 -17 -6 -19 -24 -49 -41 -69 -20 -23 -38 -52 -38 -60 0 -5 -8 -15 -18
-22 -11 -7 -19 -19 -19 -27 0 -8 -8 -19 -17 -24 -10 -6 -14 -11 -10 -11 5 0
-4 -17 -20 -37 -17 -21 -33 -46 -36 -55 -4 -10 -11 -18 -17 -18 -6 0 -9 -4 -6
-9 3 -4 -3 -16 -14 -26 -11 -10 -20 -24 -20 -30 0 -7 -7 -15 -15 -19 -8 -3
-15 -12 -15 -21 0 -8 -5 -15 -11 -15 -6 0 -9 -6 -6 -13 3 -7 -4 -19 -14 -25
-10 -7 -19 -19 -19 -27 0 -8 -5 -15 -10 -15 -6 0 -15 -11 -20 -25 -5 -14 -15
-25 -21 -25 -7 0 -9 -3 -6 -7 4 -3 -3 -17 -15 -30 -12 -13 -18 -23 -14 -23 4
0 1 -6 -6 -14 -7 -7 -20 -24 -28 -36 -8 -12 -23 -33 -32 -45 -10 -13 -18 -28
-18 -34 0 -6 -4 -11 -9 -11 -5 0 -11 -8 -14 -17 -4 -10 -13 -27 -22 -39 -14
-18 -13 -22 3 -40 9 -10 44 -50 77 -89 33 -38 65 -75 70 -81 6 -6 28 -32 50
-59 22 -26 49 -57 60 -69 11 -12 42 -48 69 -81 27 -33 54 -64 60 -70 6 -5 31
-35 56 -65 74 -91 122 -140 132 -134 4 3 6 9 3 14 -3 5 3 15 15 22 11 7 20 18
20 24 0 13 88 93 95 86 3 -3 14 3 24 12 11 10 25 18 33 19 7 2 24 10 38 20 13
9 30 17 37 17 7 0 13 4 13 10 0 5 3 9 8 8 12 -3 56 14 74 29 9 8 22 12 27 8 6
-3 11 -2 11 3 0 9 57 36 72 34 3 -1 12 5 18 13 7 8 21 15 30 15 10 0 20 5 22
11 2 5 10 11 18 13 8 1 51 20 95 41 44 22 82 40 85 41 20 4 80 36 85 44 4 6
10 8 15 5 5 -3 11 -1 15 5 3 5 15 10 25 10 10 0 20 5 22 11 2 5 10 11 18 12 8
1 34 12 57 24 22 12 43 20 46 17 2 -2 10 2 17 11 7 8 16 15 21 15 15 0 118 50
124 60 4 6 10 8 15 5 8 -5 54 18 70 35 3 3 11 6 18 8 7 1 59 24 116 51 56 27
112 52 124 55 12 4 22 12 22 17 0 5 3 8 8 7 4 -1 43 16 87 37 44 21 86 39 94
41 7 1 18 7 24 13 6 6 17 11 24 11 7 0 30 11 51 24 20 12 42 24 47 25 11 1
112 49 186 87 25 13 49 21 53 17 3 -3 6 -2 6 4 0 9 29 24 70 38 3 0 33 15 67
32 34 17 64 29 66 27 2 -3 10 2 17 11 7 8 16 15 21 15 4 0 47 19 96 42 48 24
90 43 93 43 3 1 23 10 45 22 22 11 43 20 46 19 3 0 13 5 23 13 9 8 19 11 22 8
3 -3 14 3 25 14 11 11 24 17 28 14 5 -2 14 2 21 10 7 8 18 15 24 15 6 0 28 9
49 20 20 11 44 20 52 20 8 0 15 5 15 11 0 5 4 8 9 4 5 -3 16 2 24 10 9 8 23
15 31 15 9 0 16 4 16 10 0 5 7 7 15 4 8 -4 15 -1 15 6 0 7 8 10 18 8 10 -3 23
1 30 8 7 7 31 18 53 24 23 6 53 16 68 22 14 6 37 13 50 15 14 2 35 10 49 17
l24 13 -42 49 c-58 67 -69 69 -114 27 -20 -19 -40 -33 -43 -29 -3 3 -22 -8
-41 -24 -19 -16 -39 -27 -43 -24 -4 2 -10 0 -14 -5 -5 -9 -50 -31 -165 -83
-92 -42 -115 -53 -120 -59 -5 -7 -53 -23 -58 -20 -1 1 -10 -5 -18 -14 -9 -8
-24 -15 -34 -15 -10 0 -21 -7 -24 -15 -3 -9 -11 -15 -18 -14 -17 3 -49 -10
-70 -29 -10 -8 -18 -12 -18 -9 0 4 -30 -9 -67 -28 -37 -19 -72 -35 -79 -35 -6
0 -17 -7 -24 -15 -7 -9 -15 -13 -17 -11 -3 3 -25 -7 -49 -20 -24 -14 -44 -22
-44 -18 0 4 -9 -1 -20 -11 -11 -10 -20 -14 -20 -10 0 4 -9 0 -20 -10 -11 -10
-20 -15 -20 -12 0 4 -30 -9 -66 -28 -37 -20 -69 -33 -71 -31 -3 3 -14 -4 -26
-14 -11 -11 -23 -17 -27 -15 -4 3 -13 -2 -20 -10 -7 -8 -20 -15 -29 -15 -9 0
-31 -9 -50 -21 -18 -11 -36 -18 -39 -15 -3 3 -10 -1 -16 -9 -6 -9 -22 -17 -35
-20 -14 -2 -28 -10 -33 -17 -4 -7 -8 -9 -8 -3 0 5 -5 4 -12 -3 -7 -7 -20 -12
-30 -12 -10 0 -18 -4 -18 -10 0 -5 -18 -15 -40 -21 -22 -7 -45 -18 -51 -26 -6
-7 -20 -13 -31 -13 -10 0 -21 -7 -24 -15 -4 -8 -10 -12 -15 -9 -5 2 -19 -1
-31 -8 -13 -7 -27 -12 -31 -13 -4 0 -12 -6 -16 -14 -5 -7 -13 -11 -19 -7 -6 3
-14 1 -17 -4 -7 -11 -47 -30 -71 -34 -7 -1 -19 -8 -28 -15 -9 -7 -16 -10 -16
-6 0 5 -8 2 -17 -6 -10 -8 -30 -20 -45 -27 -16 -7 -40 -17 -55 -24 -16 -7 -36
-18 -45 -26 -9 -8 -21 -11 -27 -8 -5 3 -11 1 -13 -4 -2 -6 -10 -12 -18 -14 -8
-1 -35 -13 -60 -26 -25 -13 -47 -25 -50 -26 -34 -10 -70 -28 -70 -36 0 -5 -5
-6 -11 -2 -6 3 -14 3 -18 -2 -7 -10 -58 -36 -80 -40 -8 -1 -17 -8 -21 -15 -4
-6 -12 -9 -18 -5 -6 3 -13 2 -17 -3 -7 -13 -64 -41 -82 -41 -7 0 -13 -4 -13
-10 0 -5 -8 -10 -19 -10 -10 0 -24 -7 -31 -15 -7 -8 -16 -13 -20 -10 -4 3 -13
-2 -20 -10 -6 -7 -17 -12 -24 -9 -7 3 -19 -2 -26 -10 -7 -9 -16 -14 -20 -11
-4 3 -13 -2 -20 -10 -7 -8 -21 -15 -31 -15 -11 0 -19 -4 -19 -9 0 -5 -7 -12
-16 -15 -10 -4 -13 -2 -8 7 4 6 -1 5 -12 -3 -22 -19 -106 -60 -115 -57 -3 1
-14 -5 -23 -13 -10 -8 -25 -15 -34 -17 -9 -1 -18 -7 -20 -12 -2 -6 -12 -11
-22 -11 -10 0 -22 -5 -25 -10 -4 -6 -10 -8 -15 -5 -4 3 -13 -2 -20 -10 -14
-16 -40 -20 -40 -6 0 5 7 14 15 21 9 7 13 15 11 17 -2 3 4 14 15 26 42 48 49
57 42 57 -3 0 2 9 12 20 10 11 14 20 10 20 -4 0 2 8 13 19 12 10 22 23 22 28
0 6 6 16 14 22 8 7 22 27 31 46 9 19 20 35 25 35 6 0 10 7 10 15 0 9 7 18 15
21 8 4 15 12 15 19 0 7 7 18 15 25 8 7 13 16 10 20 -3 5 3 15 13 22 10 7 25
28 33 46 7 17 17 32 22 32 4 0 12 11 17 25 5 14 14 25 20 25 5 0 10 6 10 14 0
7 7 19 15 26 8 7 13 15 10 19 -2 4 5 13 15 21 10 8 17 17 14 22 -3 4 2 11 10
14 9 3 16 10 16 15 0 12 42 73 53 77 4 2 7 8 7 14 0 12 60 99 80 115 8 7 11
13 6 13 -5 0 -1 9 9 20 10 11 14 20 9 20 -5 0 2 7 14 16 12 8 22 20 22 25 0
10 10 24 42 59 9 10 14 21 10 24 -3 4 4 13 16 22 12 8 20 20 17 25 -4 5 1 12
9 15 9 3 13 10 10 15 -3 5 1 12 10 15 8 3 19 19 25 35 5 16 15 29 20 29 6 0
11 7 11 15 0 8 5 15 10 15 6 0 10 5 10 11 0 11 48 79 65 91 7 5 7 8 0 8 -5 0
-1 7 9 15 11 8 16 15 12 15 -4 0 6 17 23 37 16 20 28 40 25 44 -3 5 4 14 16
21 11 7 20 19 20 26 0 6 9 20 19 29 11 9 18 20 15 25 -3 4 0 8 5 8 6 0 11 6
11 14 0 8 8 21 19 28 10 7 19 16 19 21 2 11 35 61 47 69 5 4 6 8 2 8 -4 0 1 9
11 20 10 11 25 33 33 48 8 15 20 31 26 35 7 4 13 14 13 21 0 7 9 21 20 31 11
10 17 22 14 26 -3 5 0 9 6 9 6 0 15 11 20 25 5 14 15 25 21 25 6 0 9 7 5 15
-3 9 0 15 9 15 14 0 17 6 14 27 0 3 6 10 15 15 9 5 16 15 16 23 0 7 3 15 8 17
10 4 52 65 52 77 0 5 7 12 16 15 8 3 13 10 9 15 -3 6 1 13 8 18 7 4 22 24 33
43 10 19 25 39 32 43 6 4 12 14 12 22 0 8 6 18 13 22 6 4 19 22 27 38 8 17 21
34 27 38 7 4 13 12 13 18 0 5 9 19 20 31 10 12 17 24 15 28 -3 5 2 10 10 14 8
3 15 11 15 17 0 7 18 36 40 65 22 29 40 57 40 63 0 5 7 11 15 15 8 3 15 12 15
20 0 8 12 24 28 36 15 12 27 25 27 29 0 10 37 52 99 111 53 52 52 46 1 104 -6
6 -53 61 -105 121 -52 61 -99 115 -105 122 -5 6 -30 35 -55 64 -25 30 -57 66
-72 81 -14 16 -24 28 -22 28 3 0 -12 18 -33 41 -21 22 -47 52 -58 66 -44 55
-95 107 -95 97 0 -6 -8 -29 -17 -50 -9 -22 -16 -42 -15 -46 1 -5 -3 -8 -9 -8
-5 0 -8 -4 -5 -9 3 -5 -1 -14 -9 -21 -8 -7 -12 -16 -9 -21 3 -5 1 -9 -5 -9 -5
0 -12 -13 -16 -30 -4 -16 -11 -30 -16 -30 -6 0 -8 -4 -5 -9 3 -5 -1 -14 -9
-21 -8 -7 -12 -16 -9 -21 3 -5 -2 -12 -10 -15 -9 -3 -14 -10 -11 -14 3 -4 -2
-13 -10 -20 -8 -7 -15 -19 -15 -26 0 -8 -4 -14 -8 -14 -5 0 -14 -16 -22 -35
-8 -19 -17 -35 -22 -35 -4 0 -8 -7 -8 -15 0 -7 -8 -18 -17 -24 -10 -5 -15 -12
-11 -16 3 -4 -1 -15 -10 -25 -27 -30 -38 -44 -41 -55 -2 -5 -16 -26 -32 -46
-16 -20 -29 -42 -29 -48 0 -6 -4 -11 -9 -11 -5 0 -11 -8 -15 -17 -6 -20 -28
-55 -38 -63 -11 -9 -78 -112 -78 -121 0 -5 -4 -9 -10 -9 -5 0 -10 -6 -10 -14
0 -8 -3 -16 -7 -18 -9 -3 -62 -79 -78 -110 -5 -12 -14 -21 -20 -20 -5 0 -29
-11 -52 -24 -24 -13 -43 -22 -43 -19 0 2 -22 -9 -50 -25 -27 -16 -50 -27 -50
-25 0 3 -21 -7 -47 -22 -27 -15 -50 -26 -53 -26 -11 1 -55 -22 -62 -32 -4 -5
-8 -6 -8 -2 0 4 -24 -6 -54 -22 -29 -17 -56 -27 -60 -24 -3 4 -6 1 -6 -5 0 -7
-6 -12 -12 -12 -7 0 -43 -16 -80 -35 -38 -19 -68 -32 -68 -28 0 3 -8 -1 -17
-9 -10 -8 -47 -27 -83 -43 -36 -15 -68 -33 -72 -39 -4 -6 -8 -7 -8 -3 0 4 -10
2 -22 -5 -13 -7 -25 -13 -28 -13 -21 -6 -59 -26 -65 -35 -4 -6 -13 -9 -21 -6
-7 3 -20 -4 -27 -14 -8 -11 -17 -17 -20 -14 -4 4 -13 1 -21 -5 -8 -7 -19 -10
-24 -7 -4 3 -14 -4 -22 -14 -8 -10 -17 -17 -22 -14 -4 3 -19 -3 -33 -12 -14
-9 -25 -12 -25 -8 0 5 -5 1 -11 -8 -5 -10 -16 -15 -24 -12 -8 4 -15 2 -15 -4
0 -8 -31 -24 -70 -37 -3 0 -45 -20 -93 -43 -49 -23 -92 -42 -97 -42 -4 0 -13
-7 -20 -15 -6 -8 -15 -14 -18 -13 -4 1 -17 -3 -29 -10 -13 -7 -23 -10 -23 -6
0 4 -9 -1 -20 -11 -11 -10 -20 -14 -20 -10 0 4 -9 0 -21 -11 -11 -10 -26 -19
-32 -20 -25 -2 -57 -17 -57 -25 0 -5 -7 -9 -15 -9 -8 0 -32 -9 -52 -20 -21
-11 -43 -20 -49 -20 -6 0 -17 -7 -24 -15 -7 -8 -20 -15 -30 -15 -10 0 -23 -7
-30 -15 -7 -9 -15 -13 -17 -11 -3 3 -20 -4 -39 -15 -19 -10 -41 -19 -48 -19
-7 0 -19 -7 -26 -15 -7 -8 -16 -13 -20 -10 -5 3 -11 1 -15 -5 -3 -5 -15 -10
-27 -10 -17 0 -18 2 -8 15 7 8 9 15 4 15 -5 0 -1 5 9 11 9 5 17 16 17 24 0 8
10 21 22 29 12 9 19 16 14 16 -5 0 -2 8 7 18 8 9 15 19 14 22 -1 3 4 12 11 20
41 48 52 64 52 77 0 7 5 13 10 13 6 0 10 5 10 10 0 6 9 20 20 32 10 12 17 24
15 28 -3 5 2 11 11 14 8 3 13 10 10 15 -3 5 1 12 9 15 9 3 20 17 25 31 5 14
14 25 20 25 6 0 9 4 6 9 -3 5 1 14 9 21 8 7 15 18 15 25 0 7 7 15 15 19 8 3
15 10 15 17 0 12 61 102 73 107 4 2 7 10 7 18 0 8 7 17 15 20 8 4 13 10 10 14
-2 4 4 15 15 25 11 10 20 24 20 32 0 7 5 13 10 13 6 0 10 8 10 18 0 9 9 23 20
30 12 7 18 17 15 21 -2 5 2 12 11 15 9 4 14 9 11 13 -4 3 3 14 14 24 11 9 20
20 20 23 -3 20 1 26 15 26 10 0 14 6 11 14 -3 8 1 17 9 20 8 3 14 10 14 16 0
6 19 37 42 68 24 31 43 60 43 63 0 3 8 13 18 23 9 10 15 21 12 26 -3 4 2 11
11 14 9 4 14 9 11 12 -5 5 8 24 43 64 8 9 16 23 18 31 2 8 8 16 13 17 5 2 9
10 9 17 0 7 7 15 15 19 8 3 15 12 15 19 0 8 7 20 15 27 8 7 12 16 10 21 -3 4
4 13 15 19 11 6 20 17 20 25 0 8 5 15 11 15 5 0 7 5 4 10 -3 6 -2 10 2 10 5 0
24 25 42 55 18 30 37 55 42 55 5 0 6 7 3 15 -4 9 -1 15 7 15 8 0 23 19 34 41
10 23 25 44 32 46 7 3 13 11 13 19 0 8 7 22 16 32 20 23 82 113 91 132 4 8 11
18 17 22 6 4 11 11 11 15 0 4 12 24 26 43 14 19 29 43 32 53 4 9 11 17 17 17
5 0 10 6 10 14 0 7 7 19 15 26 9 7 13 15 10 18 -3 3 4 12 15 19 11 8 18 18 15
23 -3 5 5 16 17 24 12 9 19 16 14 16 -5 0 -1 9 9 20 10 11 14 20 10 20 -4 0 2
8 13 19 12 10 22 23 22 29 0 6 4 12 9 14 5 2 11 9 13 17 2 7 15 27 31 45 15
17 27 36 27 44 0 7 7 15 15 18 8 4 12 10 10 15 -3 5 3 16 15 26 11 10 20 23
20 30 0 7 5 13 10 13 6 0 10 4 10 10 0 5 11 26 25 47 14 21 31 47 38 57 6 10
22 31 35 46 12 15 22 32 22 38 0 5 7 13 16 16 8 3 13 9 10 14 -2 4 9 18 25 31
16 13 26 27 24 32 -3 4 5 15 18 23 12 9 44 40 71 71 l47 55 -48 58 c-26 31
-53 62 -59 67 -5 6 -34 39 -64 75 -30 36 -59 70 -64 75 -6 6 -33 37 -61 70
-27 33 -54 65 -60 71 -5 6 -30 35 -55 64 -25 30 -54 64 -65 76 -11 12 -37 42
-59 68 -37 45 -59 59 -54 34z"/>
</g>
</svg>
